<svg width="313" height="76" viewBox="0 0 313 76" fill="none" xmlns="http://www.w3.org/2000/svg">
<rect y="4.30884" width="312.58" height="63.6104" rx="23.8136" fill="#1976D2"/>
<rect x="170.408" y="4.30884" width="142.172" height="63.6104" rx="23.8136" fill="white"/>
<g filter="url(#filter0_d_223_148)">
<path d="M36.9183 43.7847L37.0241 36.591C37.0241 36.0973 37.5354 35.7799 38.558 35.6389C39.5807 35.4625 40.427 35.3744 41.097 35.3744L43.1599 35.5331C44.4999 35.7447 45.1699 36.1149 45.1699 36.6439L44.9584 53.2001C44.2531 53.6938 42.8249 54.1875 40.6738 54.6812C38.558 55.1396 36.1249 55.3688 33.3743 55.3688C28.2611 55.3688 24.1353 53.7114 20.9968 50.3966C17.8584 47.0819 16.2891 42.2155 16.2891 35.7975C16.2891 30.3317 17.8231 25.8885 20.891 22.4679C23.9589 19.0474 28.2082 17.3371 33.6388 17.3371C36.1072 17.3371 38.3288 17.5839 40.3036 18.0776C42.3136 18.5361 43.6889 19.1708 44.4294 19.9819C44.4647 20.264 44.4823 20.7929 44.4823 21.5687C44.4823 22.3445 44.2178 23.4553 43.6889 24.9011C43.1599 26.3117 42.5604 27.3696 41.8904 28.0748C41.2204 28.7801 40.7267 29.1327 40.4094 29.1327C40.1273 29.1327 39.8099 29.0093 39.4573 28.7625C39.1399 28.4804 38.4875 28.1983 37.5001 27.9162C36.5128 27.5988 35.5606 27.4401 34.6438 27.4401C32.4574 27.4401 30.6766 28.1454 29.3014 29.5559C27.9613 30.9664 27.2913 33.1528 27.2913 36.1149C27.2913 39.0771 27.979 41.3339 29.3543 42.8855C30.7648 44.4018 32.3693 45.16 34.1677 45.16C36.0014 45.16 36.9183 44.7016 36.9183 43.7847ZM75.0607 54.9456C71.9928 54.9456 70.3354 54.4519 70.0886 53.4646L68.343 46.6411H59.9327L58.3987 53.2001C58.1871 54.2933 56.4945 54.8398 53.3208 54.8398C51.6281 54.8398 50.3763 54.7517 49.5652 54.5754C48.7541 54.3638 48.3486 54.2051 48.3486 54.0993L57.7111 18.2892C57.7111 18.0071 60.1266 17.8661 64.9577 17.8661C69.7888 17.8661 72.2044 18.0071 72.2044 18.2892L81.3553 54.1522C81.3553 54.399 80.5442 54.593 78.9221 54.7341C77.3 54.8751 76.0128 54.9456 75.0607 54.9456ZM61.2551 39.9234H66.8091L64.4288 28.9741H64.1114L61.2551 39.9234ZM121.887 54.8927C118.749 54.8927 117.18 54.5401 117.18 53.8348L116.069 32.6238L109.616 54.0993C109.475 54.5225 108.276 54.7341 106.019 54.7341C103.762 54.7341 102.598 54.5401 102.528 54.1522L95.863 32.4123L95.1225 53.5175C95.0872 54.0464 94.4172 54.4167 93.1125 54.6283C91.8077 54.8046 90.7146 54.8927 89.833 54.8927C88.9866 54.8927 88.158 54.8398 87.3469 54.7341C85.6542 54.4872 84.8255 54.0464 84.8608 53.4117L86.0774 19.0298C86.0774 18.1834 88.2285 17.7603 92.5306 17.7603C93.8001 17.7603 95.3517 17.8661 97.1854 18.0776C99.0191 18.254 100.042 18.6242 100.253 19.1884L106.178 35.8504L111.361 19.1355C111.679 18.2187 114.112 17.7603 118.661 17.7603C119.966 17.7603 121.517 17.8661 123.316 18.0776C125.149 18.254 126.066 18.589 126.066 19.0826L127.6 53.7819C127.6 54.1698 126.913 54.4519 125.537 54.6283C124.162 54.8046 122.945 54.8927 121.887 54.8927ZM150.04 32.518C150.71 32.518 151.045 33.7523 151.045 36.2207C151.045 36.9612 150.957 37.8428 150.78 38.8655C150.639 39.8529 150.357 40.3465 149.934 40.3465H143.216V45.6361H152.949C153.548 45.6361 153.954 46.4119 154.166 47.9635C154.271 48.6335 154.324 49.3564 154.324 50.1322C154.324 50.8727 154.218 51.8424 154.007 53.0414C153.795 54.2404 153.443 54.8398 152.949 54.8398H134.859C133.519 54.8398 132.849 54.2933 132.849 53.2001V19.1884C132.849 18.2716 133.254 17.8132 134.065 17.8132H153.002C153.742 17.8132 154.113 19.3824 154.113 22.5208C154.113 25.624 153.742 27.1756 153.002 27.1756H143.216V32.518H150.04Z" fill="white"/>
</g>
<g filter="url(#filter1_d_223_148)">
<path d="M205.992 23.5447C204.522 23.5447 202.483 23.3059 199.875 22.8283C196.202 25.6202 192.804 27.0161 189.681 27.0161C189.571 27.0161 189.461 27.0161 189.351 27.0161C187.11 26.9794 185.347 26.3916 184.061 25.2528C182.812 24.0773 182.187 22.5345 182.187 20.6242C182.187 18.6773 182.812 17.0977 184.061 15.8854C185.347 14.6732 187.238 14.067 189.736 14.067C191.389 14.067 194.034 14.6181 197.671 15.7201C201.492 16.8589 204.338 17.4283 206.212 17.4283C209.298 17.4283 211.336 16.3262 212.328 14.1222L214.477 15.6099C213.669 20.8998 210.841 23.5447 205.992 23.5447ZM187.642 22.2773C187.642 23.1957 188.432 23.6549 190.012 23.6549C191.591 23.6549 193.52 23.0671 195.798 21.8916C192.565 21.0834 190.342 20.6793 189.13 20.6793C188.726 20.6793 188.377 20.8446 188.083 21.1753C187.789 21.4691 187.642 21.8365 187.642 22.2773ZM202.685 26.3549L201.804 32.2509H210.014C210.345 33.0223 210.51 33.7754 210.51 34.5101C210.51 35.2448 210.161 35.8692 209.463 36.3835C208.765 36.8611 207.883 37.0999 206.818 37.0999H201.032L200.977 37.5958C205.606 39.7999 207.92 43.0693 207.92 47.404C207.92 50.6734 207.057 52.9877 205.33 54.3469C203.604 55.6694 201.565 56.3306 199.214 56.3306C196.863 56.3306 195.045 55.7429 193.759 54.5673C192.473 53.3551 191.83 51.7571 191.83 49.7734C191.83 49.4428 191.867 49.0204 191.94 48.5061L193.428 37.0999H188.249C188.469 35.006 188.653 33.3896 188.8 32.2509H194.089L194.696 27.4018C196.606 26.4835 198.204 26.0243 199.489 26.0243C200.775 26.0243 201.841 26.1345 202.685 26.3549ZM200.922 51.3163C201.804 51.3163 202.575 51.004 203.236 50.3796C203.898 49.7183 204.228 48.6897 204.228 47.2938C204.228 44.5387 202.979 42.4264 200.481 40.957C199.894 45.0346 199.581 47.5877 199.545 48.6163C199.545 49.6081 199.673 50.3061 199.93 50.7102C200.224 51.1143 200.555 51.3163 200.922 51.3163ZM237.822 30.0468C236.316 41.9489 235.563 48.2857 235.563 49.0571C235.563 50.5265 236.096 51.2612 237.161 51.2612C238.116 51.2612 239.145 50.6183 240.247 49.3326C241.386 48.0101 242.286 46.0448 242.947 43.4366C244.159 44.7591 244.894 45.7877 245.151 46.5224C244.306 50.0857 242.965 52.602 241.128 54.0714C239.292 55.5408 237.4 56.2755 235.453 56.2755C232.257 56.2755 230.108 55.0449 229.006 52.5836C227.096 55.0449 224.543 56.2755 221.347 56.2755C218.702 56.2755 216.663 55.6143 215.23 54.2918C213.798 52.9694 213.081 51.2428 213.081 49.1122C213.081 48.5979 213.173 47.6979 213.357 46.4122C214.202 39.5795 214.845 34.1427 215.285 30.1019C216.424 29.6978 217.471 29.4957 218.426 29.4957C219.381 29.4957 220.098 29.5325 220.575 29.6059C221.053 29.6794 221.512 29.9549 221.953 30.4325C222.394 30.91 222.614 31.5896 222.614 32.4713L220.796 46.5224C220.722 46.9632 220.685 47.3673 220.685 47.7346C220.685 49.902 221.677 50.9857 223.661 50.9857C225.498 50.9857 227.022 50.0857 228.234 48.2857C228.234 47.8816 228.271 47.2387 228.345 46.3571L230.163 31.6998C230.42 31.0753 230.971 30.561 231.816 30.157C232.661 29.7161 233.708 29.4957 234.957 29.4957C236.243 29.4957 237.198 29.6794 237.822 30.0468ZM264.207 39.1387C267.109 41.2693 268.56 43.7856 268.56 46.6877C268.56 49.5898 267.422 51.9224 265.144 53.6857C262.866 55.449 260.001 56.3306 256.548 56.3306C254.307 56.3306 252.434 55.7796 250.928 54.6775C249.458 53.5388 248.723 52.1428 248.723 50.4898C248.723 48.8367 249.275 47.5326 250.377 46.5775C251.479 45.5856 252.856 44.9795 254.509 44.7591C253.738 45.8612 253.352 46.9265 253.352 47.955C253.352 48.9469 253.701 49.7551 254.399 50.3796C255.097 51.004 255.979 51.3163 257.044 51.3163C258.109 51.3163 258.991 50.9306 259.689 50.1591C260.387 49.351 260.736 48.4326 260.736 47.404C260.736 45.7142 259.946 44.2081 258.366 42.8856C257.411 42.1142 256.383 41.3979 255.281 40.7366C254.179 40.0387 253.591 39.6713 253.517 39.6346C253.37 39.5244 253.224 39.4325 253.077 39.3591C252.415 40.1305 251.46 41.1958 250.211 42.555C248.962 43.8775 247.97 44.9428 247.236 45.7509C245.179 47.9918 244.021 49.8653 243.764 51.3714C243.691 51.6653 243.654 52.2347 243.654 53.0796C243.654 53.8877 243.893 54.7326 244.37 55.6143C244.885 56.4959 245.491 57.1572 246.189 57.598C246.887 58.0388 247.566 58.3878 248.228 58.6449C248.926 58.9388 249.513 59.1408 249.991 59.251C250.505 59.3612 250.762 59.4347 250.762 59.4715C250.762 59.7286 250.358 60.0225 249.55 60.3531C248.044 60.9041 246.464 61.1796 244.811 61.1796C243.195 61.1796 241.615 60.5919 240.072 59.4164C237.979 57.8 236.932 55.651 236.932 52.9694C236.932 51.3163 237.354 49.6816 238.199 48.0652C239.705 45.1999 243.232 41.2693 248.779 36.2733C247.419 34.9141 246.74 33.4631 246.74 31.9202C246.74 30.3774 247.309 29.0733 248.448 28.008C249.624 26.9427 251.001 26.41 252.581 26.41C254.013 26.41 255.262 26.9794 256.328 28.1182C257.026 28.8896 257.375 29.8631 257.375 31.0386C257.375 32.2141 256.989 33.5366 256.217 35.006C260.148 36.7693 262.811 38.1468 264.207 39.1387ZM252.25 32.9121C253.132 31.9937 253.573 31.3325 253.573 30.9284C253.573 30.01 253.168 29.5141 252.36 29.4406C251.442 29.4406 250.983 29.9549 250.983 30.9835C250.983 31.608 251.405 32.2509 252.25 32.9121ZM279.782 43.6571C282.059 43.1795 283.749 42.2611 284.851 40.9019C285.99 39.5427 286.559 38.2386 286.559 36.9897C286.559 35.7039 286.211 34.8407 285.513 34.3998C284.851 33.9223 284.117 33.6835 283.308 33.6835C281.582 33.6835 280.057 34.657 278.735 36.6039C277.449 38.5142 276.806 40.8101 276.806 43.4917C276.806 46.1367 277.431 48.1204 278.68 49.4428C279.966 50.7285 281.545 51.3714 283.419 51.3714C286.174 51.3714 288.819 50.4163 291.353 48.5061C293.888 46.5959 295.945 44.0979 297.525 41.0121C298.333 41.7836 299.068 42.7387 299.729 43.8775C298.517 46.6326 296.368 49.3326 293.282 51.9775C291.739 53.2632 289.902 54.3102 287.772 55.1184C285.678 55.9265 283.51 56.3306 281.27 56.3306C277.596 56.3306 274.694 55.2102 272.563 52.9694C270.286 50.5449 269.147 47.4408 269.147 43.6571C269.147 39.8734 270.561 36.5672 273.39 33.7386C276.255 30.91 279.672 29.4957 283.639 29.4957C286.468 29.4957 288.764 30.1202 290.527 31.3692C292.29 32.5815 293.19 34.2345 293.227 36.3284C293.227 39.157 292.088 41.453 289.811 43.2162C287.57 44.9795 284.484 46.2101 280.553 46.9081L279.782 43.6571Z" fill="#1976D2"/>
</g>
<defs>
<filter id="filter0_d_223_148" x="14.2984" y="15.3465" width="142.017" height="42.0131" filterUnits="userSpaceOnUse" color-interpolation-filters="sRGB">
<feFlood flood-opacity="0" result="BackgroundImageFix"/>
<feColorMatrix in="SourceAlpha" type="matrix" values="0 0 0 0 0 0 0 0 0 0 0 0 0 0 0 0 0 0 127 0" result="hardAlpha"/>
<feOffset/>
<feGaussianBlur stdDeviation="0.995341"/>
<feComposite in2="hardAlpha" operator="out"/>
<feColorMatrix type="matrix" values="0 0 0 0 0 0 0 0 0 0 0 0 0 0 0 0 0 0 0.25 0"/>
<feBlend mode="normal" in2="BackgroundImageFix" result="effect1_dropShadow_223_148"/>
<feBlend mode="normal" in="SourceGraphic" in2="effect1_dropShadow_223_148" result="shape"/>
</filter>
<filter id="filter1_d_223_148" x="180.219" y="12.0992" width="121.478" height="51.0484" filterUnits="userSpaceOnUse" color-interpolation-filters="sRGB">
<feFlood flood-opacity="0" result="BackgroundImageFix"/>
<feColorMatrix in="SourceAlpha" type="matrix" values="0 0 0 0 0 0 0 0 0 0 0 0 0 0 0 0 0 0 127 0" result="hardAlpha"/>
<feOffset/>
<feGaussianBlur stdDeviation="0.983972"/>
<feComposite in2="hardAlpha" operator="out"/>
<feColorMatrix type="matrix" values="0 0 0 0 0 0 0 0 0 0 0 0 0 0 0 0 0 0 0.25 0"/>
<feBlend mode="normal" in2="BackgroundImageFix" result="effect1_dropShadow_223_148"/>
<feBlend mode="normal" in="SourceGraphic" in2="effect1_dropShadow_223_148" result="shape"/>
</filter>
</defs>
</svg>
